<svg xmlns="http://www.w3.org/2000/svg" xmlns:xlink="http://www.w3.org/1999/xlink" version="1.1" x="0px" y="0px" viewBox="0 0 24 24" enable-background="new 0 0 24 24" xml:space="preserve"><g><path d="M13.2,10.2c-0.2-0.5-0.9-0.5-1.1,0l-0.2,0.4c-0.1,0.2-0.2,0.3-0.4,0.3l-0.9,0.3c-0.1-0.3-0.2-0.5-0.4-0.6L11,9.2   c0.5-0.7,0-1.5-0.9-1.6c-0.6-0.1-1.4-0.1-2,0.2C7.7,8,7.6,8.6,8.1,8.9l0.4,0.2c0.2,0.1,0.3,0.2,0.3,0.4l0.3,0.9   c-0.3,0.1-0.5,0.2-0.6,0.5L7.2,10c-0.7-0.5-1.5,0-1.6,0.9c-0.1,0.6-0.1,1.4,0.2,2c0.2,0.5,0.9,0.5,1.1,0l0.2-0.4   c0.1-0.2,0.2-0.3,0.4-0.3l0.9-0.3c0.1,0.3,0.2,0.5,0.5,0.6l-0.9,1.3c-0.5,0.7,0,1.5,0.9,1.6c0.6,0.1,1.4,0.1,2-0.2   c0.5-0.2,0.5-0.9,0-1.1l-0.4-0.2c-0.2-0.1-0.3-0.2-0.3-0.4l-0.3-0.9c0.3-0.1,0.5-0.2,0.6-0.5l1.3,0.9c0.7,0.5,1.5,0,1.6-0.9   C13.5,11.5,13.5,10.7,13.2,10.2z"></path><rect x="18" y="19" width="2" height="1"></rect><rect x="4" y="19" width="2" height="1"></rect><path d="M21,4H3C2.4,4,2,4.4,2,5v13c0,0.6,0.4,1,1,1h18c0.6,0,1-0.4,1-1V5C22,4.4,21.6,4,21,4z M9.5,17c-3,0-5.5-2.5-5.5-5.5   S6.5,6,9.5,6c3,0,5.5,2.5,5.5,5.5S12.5,17,9.5,17z M20,17h-3v-2h3V17z"></path></g></svg>