<svg xmlns="http://www.w3.org/2000/svg" xmlns:xlink="http://www.w3.org/1999/xlink" version="1.1" x="0px" y="0px" viewBox="0 0 100 100" enable-background="new 0 0 100 100" xml:space="preserve"><rect x="5" y="5" fill="none" width="90" height="90"></rect><g><g><g><g><g><path fill="none" stroke="#000000" stroke-width="10" stroke-linecap="round" stroke-linejoin="round" stroke-miterlimit="10" d="       M53.152,64.854"></path></g></g></g></g></g><g><g><g><g><g><path fill="none" stroke="#000000" stroke-width="10" stroke-linecap="round" stroke-linejoin="round" stroke-miterlimit="10" d="       M53.152,52.744"></path></g></g></g></g></g><g><polygon points="11.049,47.842 88.953,47.842 89.227,46.293 10.775,46.293  "></polygon><path d="M93.711,17.047H6.291c-0.389,0-0.705,0.316-0.705,0.705v23.723c0,0.042,0.004,0.083,0.011,0.124l2.068,11.656   c0.06,0.336,0.353,0.582,0.694,0.582h2.068v2.174c0,0.391,0.315,0.705,0.704,0.705h77.738c0.391,0,0.705-0.314,0.705-0.705v-2.174   h2.068c0.342,0,0.635-0.246,0.695-0.582l2.066-11.656c0.008-0.041,0.012-0.082,0.012-0.124V17.752   C94.416,17.363,94.1,17.047,93.711,17.047z M90.762,45.711l-0.607,3.428c-0.012,0.061-0.029,0.118-0.055,0.171   c-0.131,0.507-0.588,0.881-1.137,0.881H11.038c-0.547,0-1.005-0.374-1.136-0.881c-0.025-0.053-0.044-0.11-0.055-0.171L9.24,45.711   c-0.037-0.205,0.02-0.416,0.153-0.576s0.332-0.252,0.541-0.252h80.134c0.209,0,0.406,0.093,0.539,0.252   C90.742,45.295,90.799,45.506,90.762,45.711z M90.068,42.18H9.934c-0.39,0-0.705-0.315-0.705-0.705   c0-0.389,0.315-0.705,0.705-0.705h80.134c0.389,0,0.705,0.316,0.705,0.705C90.773,41.864,90.457,42.18,90.068,42.18z"></path><polygon points="27.677,69.461 27.681,69.457 27.221,68.662 27.184,68.598 27.184,68.598 27.16,68.557 24.76,69.941 25.31,67.85    24.303,67.584 23.492,70.674 19.89,72.754 19.89,68.658 22.201,66.373 21.468,65.633 19.89,67.193 19.89,64.359 18.848,64.359    18.848,67.201 17.269,65.652 16.54,66.396 18.848,68.66 18.848,72.754 15.281,70.693 14.45,67.582 13.443,67.852 14.005,69.957    11.579,68.557 11.558,68.592 11.554,68.59 11.105,69.377 11.058,69.457 11.058,69.459 11.038,69.494 13.506,70.902 11.377,71.508    11.662,72.51 14.773,71.627 18.327,73.656 14.773,75.684 11.662,74.801 11.377,75.803 13.506,76.408 11.038,77.816 11.058,77.852    11.058,77.854 11.105,77.934 11.554,78.721 11.558,78.719 11.579,78.754 14.005,77.354 13.443,79.459 14.45,79.729 15.281,76.617    18.848,74.557 18.848,78.688 16.54,80.951 17.269,81.695 18.848,80.146 18.848,82.951 19.89,82.951 19.89,80.154 21.468,81.715    22.201,80.975 19.89,78.689 19.89,74.557 23.492,76.637 24.303,79.727 25.31,79.461 24.76,77.369 27.16,78.754 27.184,78.713    27.184,78.713 27.22,78.65 27.681,77.854 27.677,77.85 27.701,77.809 25.271,76.422 27.409,75.824 27.129,74.822 24,75.695    20.426,73.656 24,71.615 27.129,72.488 27.409,71.486 25.271,70.889 27.701,69.502  "></polygon><polygon points="88.939,69.461 88.943,69.457 88.484,68.662 88.447,68.598 88.447,68.598 88.424,68.557 86.023,69.941    86.572,67.85 85.566,67.584 84.754,70.674 81.152,72.754 81.152,68.658 83.463,66.373 82.73,65.633 81.152,67.193 81.152,64.359    80.111,64.359 80.111,67.201 78.531,65.652 77.803,66.396 80.111,68.66 80.111,72.754 76.543,70.693 75.713,67.582 74.707,67.852    75.27,69.957 72.842,68.557 72.82,68.592 72.816,68.59 72.367,69.377 72.32,69.457 72.32,69.459 72.301,69.494 74.77,70.902    72.641,71.508 72.926,72.51 76.035,71.627 79.59,73.656 76.035,75.684 72.926,74.801 72.641,75.803 74.77,76.408 72.301,77.816    72.32,77.852 72.32,77.854 72.367,77.934 72.816,78.721 72.82,78.719 72.842,78.754 75.27,77.354 74.707,79.459 75.713,79.729    76.543,76.617 80.111,74.557 80.111,78.688 77.803,80.951 78.531,81.695 80.111,80.146 80.111,82.951 81.152,82.951 81.152,80.154    82.73,81.715 83.463,80.975 81.152,78.689 81.152,74.557 84.754,76.637 85.566,79.727 86.572,79.461 86.023,77.369 88.424,78.754    88.447,78.713 88.447,78.713 88.484,78.65 88.943,77.854 88.939,77.85 88.963,77.809 86.535,76.422 88.672,75.824 88.393,74.822    85.262,75.695 81.689,73.656 85.262,71.615 88.393,72.488 88.672,71.486 86.535,70.889 88.963,69.502  "></polygon><polygon points="58.309,69.461 58.313,69.457 57.854,68.662 57.816,68.598 57.816,68.598 57.791,68.557 55.393,69.941    55.941,67.85 54.934,67.584 54.123,70.674 50.521,72.754 50.521,68.658 52.832,66.373 52.1,65.633 50.521,67.193 50.521,64.359    49.48,64.359 49.48,67.201 47.901,65.652 47.171,66.396 49.48,68.66 49.48,72.754 45.912,70.693 45.081,67.582 44.075,67.852    44.637,69.957 42.21,68.557 42.189,68.592 42.186,68.59 41.736,69.377 41.689,69.457 41.69,69.459 41.669,69.494 44.138,70.902    42.009,71.508 42.293,72.51 45.404,71.627 48.958,73.656 45.404,75.684 42.293,74.801 42.009,75.803 44.138,76.408 41.669,77.816    41.69,77.852 41.689,77.854 41.736,77.934 42.186,78.721 42.189,78.719 42.21,78.754 44.637,77.354 44.075,79.459 45.081,79.729    45.912,76.617 49.48,74.557 49.48,78.688 47.171,80.951 47.901,81.695 49.48,80.146 49.48,82.951 50.521,82.951 50.521,80.154    52.1,81.715 52.832,80.975 50.521,78.689 50.521,74.557 54.123,76.637 54.934,79.727 55.941,79.461 55.393,77.369 57.791,78.754    57.816,78.713 57.816,78.713 57.852,78.65 58.313,77.854 58.309,77.85 58.332,77.809 55.902,76.422 58.041,75.824 57.76,74.822    54.631,75.695 51.059,73.656 54.631,71.615 57.76,72.488 58.041,71.486 55.902,70.889 58.332,69.502  "></polygon></g></svg>